# xmcd CD database file
#
# Track frame offsets:
#	150
#	19945
#	33458
#	44286
#	56771
#	75947
#	90469
#	102450
#	108779
#	112364
#	115259
#	126757
#	134688
#	139432
#	145716
#	150391
#	154801
#	157766
#	164982
#
# Disc length: 2267 seconds
#
# Revision: 0
# Processed by: cddbd v1.5.2PL0 Copyright (c) Steve Scherf et al.
# Submitted via: CDex 1.51
#
DISCID=0508d913
DTITLE=Poul Henningen og Halfdan Rasmussen - Malene Schwartz
DYEAR=1900
DGENRE=Viser
TTITLE0=Ta' og kys det hele fra mig
TTITLE1=La' vær, la' vær med det
TTITLE2=Sig de ord, du ved
TTITLE3=Men jeg kan bare ikke se, det rager andre
TTITLE4=Alting
TTITLE5=Jeg elsker en mand, der er gift
TTITLE6=Efter såd'n en yndig aften
TTITLE7=Noget om en poet
TTITLE8=Noget om beskæftigelse
TTITLE9=Noget om fjernelse af hæmninger
TTITLE10=Noget om stjernefangst
TTITLE11=Noget om beslutsomhed
TTITLE12=Noget om relative glæder
TTITLE13=Noget om en dejlig nat
TTITLE14=Noget om flegma
TTITLE15=Noget om mystik
TTITLE16=Noget om kogekunsten
TTITLE17=Noget om at være kontrær
TTITLE18=Noget om afslapning
EXTD=
EXTT0=
EXTT1=
EXTT2=
EXTT3=
EXTT4=
EXTT5=
EXTT6=
EXTT7=
EXTT8=
EXTT9=
EXTT10=
EXTT11=
EXTT12=
EXTT13=
EXTT14=
EXTT15=
EXTT16=
EXTT17=
EXTT18=
PLAYORDER=
